G04*
G04 #@! TF.GenerationSoftware,Altium Limited,Altium Designer,20.0.13 (296)*
G04*
G04 Layer_Color=32896*
%FSLAX44Y44*%
%MOMM*%
G71*
G01*
G75*
%ADD10C,0.2000*%
%ADD11C,0.2540*%
G54D10*
X59640Y218500D02*
X58258Y220402D01*
X56022Y219676D01*
Y217324D01*
X58258Y216598D01*
X59640Y218500D01*
Y384870D02*
X58258Y386772D01*
X56022Y386046D01*
Y383694D01*
X58258Y382968D01*
X59640Y384870D01*
Y844610D02*
X58258Y846512D01*
X56022Y845786D01*
Y843434D01*
X58258Y842708D01*
X59640Y844610D01*
X1442960Y554930D02*
X1441578Y556832D01*
X1439342Y556106D01*
Y553754D01*
X1441578Y553028D01*
X1442960Y554930D01*
Y737810D02*
X1441578Y739712D01*
X1439342Y738986D01*
Y736634D01*
X1441578Y735908D01*
X1442960Y737810D01*
X1233198Y1106442D02*
X1231816Y1108344D01*
X1229580Y1107618D01*
Y1105266D01*
X1231816Y1104540D01*
X1233198Y1106442D01*
X54640Y60700D02*
Y218700D01*
X27640Y60700D02*
Y218700D01*
X54640D01*
X27640Y60700D02*
X54640D01*
X27640Y227070D02*
X54640D01*
X27640Y385070D02*
X54640D01*
X27640Y227070D02*
Y385070D01*
X54640Y227070D02*
Y385070D01*
X27640Y686810D02*
X54640D01*
X27640Y844810D02*
X54640D01*
X27640Y686810D02*
Y844810D01*
X54640Y686810D02*
Y844810D01*
X1443960Y554630D02*
Y636630D01*
X1470960Y554630D02*
Y636630D01*
X1443960Y554630D02*
X1470960D01*
X1443960Y636630D02*
X1470960D01*
X1443960Y737510D02*
Y819510D01*
X1470960Y737510D02*
Y819510D01*
X1443960Y737510D02*
X1470960D01*
X1443960Y819510D02*
X1470960D01*
X1022998Y1109442D02*
X1230998D01*
X1022998Y1136442D02*
X1230998D01*
Y1109442D02*
Y1136442D01*
X1022998Y1109442D02*
Y1136442D01*
G54D11*
X86359Y229867D02*
X91438D01*
X88898D01*
Y217172D01*
X91438Y214632D01*
X93977D01*
X96516Y217172D01*
X71124Y229867D02*
X76203Y227328D01*
X81281Y222250D01*
Y217172D01*
X78742Y214632D01*
X73663D01*
X71124Y217172D01*
Y219711D01*
X73663Y222250D01*
X81281D01*
X83819Y392427D02*
X88897D01*
X86358D01*
Y379732D01*
X88897Y377192D01*
X91437D01*
X93976Y379732D01*
X78741Y389888D02*
X76202Y392427D01*
X71123D01*
X68584Y389888D01*
Y387349D01*
X71123Y384810D01*
X73663D01*
X71123D01*
X68584Y382271D01*
Y379732D01*
X71123Y377192D01*
X76202D01*
X78741Y379732D01*
X82549Y862327D02*
X87627D01*
X85088D01*
Y849632D01*
X87627Y847093D01*
X90167D01*
X92706Y849632D01*
X67314Y847093D02*
X77471D01*
X67314Y857249D01*
Y859788D01*
X69853Y862327D01*
X74932D01*
X77471Y859788D01*
X1424939Y558797D02*
X1430018D01*
X1427478D01*
Y546102D01*
X1430018Y543563D01*
X1432557D01*
X1435096Y546102D01*
X1409704Y558797D02*
X1419861D01*
Y551180D01*
X1414783Y553719D01*
X1412243D01*
X1409704Y551180D01*
Y546102D01*
X1412243Y543563D01*
X1417322D01*
X1419861Y546102D01*
X1418589Y748027D02*
X1423667D01*
X1421128D01*
Y735332D01*
X1423667Y732793D01*
X1426207D01*
X1428746Y735332D01*
X1405893Y732793D02*
Y748027D01*
X1413511Y740410D01*
X1403354D01*
X1252220Y1111247D02*
X1257298D01*
X1254759D01*
Y1098552D01*
X1257298Y1096012D01*
X1259837D01*
X1262377Y1098552D01*
X1247142Y1096012D02*
X1242063D01*
X1244602D01*
Y1111247D01*
X1247142Y1108708D01*
M02*
