M48
;Layer_Color=9474304
;FILE_FORMAT=4:4
METRIC,TZ
;TYPE=PLATED
T1F00S00C0.7112
T2F00S00C1.1000
T3F00S00C4.0000
%
T01
X896620Y753110
X874669Y778510
X596265Y920750
X613410Y966470
X631351Y1007095
T02
X40640Y76200
Y101600
Y127000
Y152400
Y177800
Y203200
Y242570
Y267970
Y293370
Y318770
Y344170
Y369570
Y702310
Y727710
Y753110
Y778510
Y803910
Y829310
X673100Y835660
Y810260
Y784860
Y759460
Y734060
Y708660
Y683260
Y657860
Y632460
Y607060
Y581660
Y556260
Y530860
X698500
Y556260
Y581660
Y607060
Y632460
Y657860
Y683260
Y708660
Y734060
Y759460
Y784860
Y810260
Y835660
Y861060
X673100
Y886460
X698500
X1457960Y803910
Y778510
Y753110
Y621030
Y595630
Y570230
X1215898Y1123442
X1190498
X1165098
X1139698
X1114298
X1088898
X1063498
X1038098
X698500Y937260
Y911860
X673100
Y937260
T03
X400050Y44450
X1098550
X1457320Y974090
X41280
M30
