G04*
G04 #@! TF.GenerationSoftware,Altium Limited,Altium Designer,20.0.13 (296)*
G04*
G04 Layer_Color=255*
%FSLAX44Y44*%
%MOMM*%
G71*
G01*
G75*
%ADD23O,2.2000X1.4000*%
%ADD24O,1.4000X2.2000*%
%ADD25C,1.6500*%
%ADD26R,1.6500X1.6500*%
%ADD27C,5.0000*%
G54D23*
X40640Y76200D02*
D03*
Y203200D02*
D03*
Y177800D02*
D03*
Y152400D02*
D03*
Y127000D02*
D03*
Y101600D02*
D03*
Y293370D02*
D03*
Y344170D02*
D03*
Y318770D02*
D03*
Y242570D02*
D03*
Y369570D02*
D03*
Y267970D02*
D03*
Y753110D02*
D03*
Y727710D02*
D03*
Y778510D02*
D03*
Y803910D02*
D03*
Y829310D02*
D03*
Y702310D02*
D03*
X1457960Y570230D02*
D03*
Y621030D02*
D03*
Y595630D02*
D03*
Y753110D02*
D03*
Y778510D02*
D03*
Y803910D02*
D03*
G54D24*
X1139698Y1123442D02*
D03*
X1063498D02*
D03*
X1038098D02*
D03*
X1088898D02*
D03*
X1165098D02*
D03*
X1190498D02*
D03*
X1215898D02*
D03*
X1114298D02*
D03*
G54D25*
X698500Y530860D02*
D03*
X673100D02*
D03*
X698500Y556260D02*
D03*
X673100D02*
D03*
X698500Y581660D02*
D03*
X673100D02*
D03*
X698500Y607060D02*
D03*
X673100D02*
D03*
X698500Y632460D02*
D03*
X673100D02*
D03*
X698500Y657860D02*
D03*
X673100D02*
D03*
X698500Y683260D02*
D03*
X673100D02*
D03*
X698500Y708660D02*
D03*
X673100D02*
D03*
X698500Y734060D02*
D03*
X673100D02*
D03*
X698500Y759460D02*
D03*
X673100D02*
D03*
X698500Y784860D02*
D03*
X673100D02*
D03*
X698500Y810260D02*
D03*
X673100D02*
D03*
X698500Y835660D02*
D03*
X673100D02*
D03*
X698500Y861060D02*
D03*
X673100D02*
D03*
Y886460D02*
D03*
X698500D02*
D03*
X673100Y911860D02*
D03*
X698500D02*
D03*
Y937260D02*
D03*
G54D26*
X673100D02*
D03*
G54D27*
X1098550Y44450D02*
D03*
X400050D02*
D03*
X1457320Y974090D02*
D03*
X41280D02*
D03*
M02*
