G04*
G04 #@! TF.GenerationSoftware,Altium Limited,Altium Designer,20.0.13 (296)*
G04*
G04 Layer_Color=8388736*
%FSLAX44Y44*%
%MOMM*%
G71*
G01*
G75*
%ADD14O,2.4000X1.6000*%
%ADD15O,1.6000X2.4000*%
%ADD16C,1.8532*%
%ADD17R,1.8532X1.8532*%
%ADD18C,5.2032*%
%ADD19C,1.4732*%
G54D14*
X40640Y101600D02*
D03*
Y127000D02*
D03*
Y152400D02*
D03*
Y177800D02*
D03*
Y203200D02*
D03*
Y76200D02*
D03*
Y267970D02*
D03*
Y369570D02*
D03*
Y242570D02*
D03*
Y318770D02*
D03*
Y344170D02*
D03*
Y293370D02*
D03*
Y702310D02*
D03*
Y829310D02*
D03*
Y803910D02*
D03*
Y778510D02*
D03*
Y727710D02*
D03*
Y753110D02*
D03*
X1457960Y595630D02*
D03*
Y621030D02*
D03*
Y570230D02*
D03*
Y803910D02*
D03*
Y778510D02*
D03*
Y753110D02*
D03*
G54D15*
X1114298Y1123442D02*
D03*
X1215898D02*
D03*
X1190498D02*
D03*
X1165098D02*
D03*
X1088898D02*
D03*
X1038098D02*
D03*
X1063498D02*
D03*
X1139698D02*
D03*
G54D16*
X698500Y530860D02*
D03*
X673100D02*
D03*
X698500Y556260D02*
D03*
X673100D02*
D03*
X698500Y581660D02*
D03*
X673100D02*
D03*
X698500Y607060D02*
D03*
X673100D02*
D03*
X698500Y632460D02*
D03*
X673100D02*
D03*
X698500Y657860D02*
D03*
X673100D02*
D03*
X698500Y683260D02*
D03*
X673100D02*
D03*
X698500Y708660D02*
D03*
X673100D02*
D03*
X698500Y734060D02*
D03*
X673100D02*
D03*
X698500Y759460D02*
D03*
X673100D02*
D03*
X698500Y784860D02*
D03*
X673100D02*
D03*
X698500Y810260D02*
D03*
X673100D02*
D03*
X698500Y835660D02*
D03*
X673100D02*
D03*
X698500Y861060D02*
D03*
X673100D02*
D03*
Y886460D02*
D03*
X698500D02*
D03*
X673100Y911860D02*
D03*
X698500D02*
D03*
Y937260D02*
D03*
G54D17*
X673100D02*
D03*
G54D18*
X1098550Y44450D02*
D03*
X400050D02*
D03*
X1457320Y974090D02*
D03*
X41280D02*
D03*
G54D19*
X596265Y920750D02*
D03*
X613410Y966470D02*
D03*
X631351Y1007095D02*
D03*
X896620Y753110D02*
D03*
X874669Y778510D02*
D03*
M02*
