G04*
G04 #@! TF.GenerationSoftware,Altium Limited,Altium Designer,20.0.13 (296)*
G04*
G04 Layer_Color=65535*
%FSLAX44Y44*%
%MOMM*%
G71*
G01*
G75*
%ADD10C,0.2000*%
%ADD11C,0.2540*%
%ADD12C,0.7620*%
%ADD13C,1.2700*%
G36*
X641550Y711560D02*
Y756560D01*
X654050D01*
Y711560D01*
X641550D01*
D02*
G37*
G54D10*
X731031Y501553D02*
X732962Y503418D01*
Y506102D01*
X731031Y507967D01*
Y730953D02*
X732962Y732818D01*
Y735502D01*
X731031Y737367D01*
Y960353D02*
X732962Y962218D01*
Y964902D01*
X731031Y966767D01*
X668100Y950860D02*
X666100D01*
X668100D01*
X731050Y478860D02*
Y501560D01*
Y507960D02*
Y730960D01*
Y737360D02*
Y960360D01*
Y966760D02*
Y989260D01*
X640550Y478860D02*
X731050D01*
X640550D02*
Y989260D01*
X731050D01*
G54D11*
X1022998Y1136442D02*
X1230998D01*
X1022998Y1109442D02*
X1230998D01*
X1470960Y737510D02*
Y819510D01*
Y554630D02*
Y636630D01*
X1443960Y737510D02*
X1470960D01*
X1443960Y554630D02*
X1470960D01*
X1443960Y819510D02*
X1470960D01*
X1443960Y636630D02*
X1470960D01*
X27640Y844810D02*
X54640D01*
X27640Y686810D02*
X54640D01*
X27640Y385070D02*
X54640D01*
X27640Y218700D02*
X54640D01*
X27640Y227070D02*
X54640D01*
X27640Y60700D02*
X54640D01*
X1443960Y737510D02*
Y819510D01*
X54640Y60700D02*
Y218700D01*
Y686810D02*
Y844810D01*
X27640Y60700D02*
Y218700D01*
Y686810D02*
Y844810D01*
X1443960Y554630D02*
Y636630D01*
X1230998Y1109442D02*
Y1136442D01*
X1022998Y1109442D02*
Y1136442D01*
X54640Y227070D02*
Y385070D01*
X27640Y227070D02*
Y385070D01*
X1418587Y571495D02*
X1413508D01*
X1416048D01*
Y558799D01*
X1413508Y556260D01*
X1410969D01*
X1408430Y558799D01*
X1433822Y571495D02*
X1423665D01*
Y563877D01*
X1428743Y566417D01*
X1431283D01*
X1433822Y563877D01*
Y558799D01*
X1431283Y556260D01*
X1426204D01*
X1423665Y558799D01*
X1421127Y755645D02*
X1416048D01*
X1418587D01*
Y742949D01*
X1416048Y740410D01*
X1413509D01*
X1410970Y742949D01*
X1433823Y740410D02*
Y755645D01*
X1426205Y748027D01*
X1436362D01*
X72387Y217165D02*
X67308D01*
X69847D01*
Y204469D01*
X67308Y201930D01*
X64769D01*
X62230Y204469D01*
X87622Y217165D02*
X82543Y214626D01*
X77465Y209548D01*
Y204469D01*
X80004Y201930D01*
X85083D01*
X87622Y204469D01*
Y207008D01*
X85083Y209548D01*
X77465D01*
X71117Y386075D02*
X66038D01*
X68577D01*
Y373379D01*
X66038Y370840D01*
X63499D01*
X60960Y373379D01*
X76195Y383536D02*
X78734Y386075D01*
X83813D01*
X86352Y383536D01*
Y380997D01*
X83813Y378457D01*
X81273D01*
X83813D01*
X86352Y375918D01*
Y373379D01*
X83813Y370840D01*
X78734D01*
X76195Y373379D01*
X73657Y850895D02*
X68578D01*
X71118D01*
Y838199D01*
X68578Y835660D01*
X66039D01*
X63500Y838199D01*
X88892Y835660D02*
X78735D01*
X88892Y845817D01*
Y848356D01*
X86353Y850895D01*
X81274D01*
X78735Y848356D01*
X1245867Y1113785D02*
X1240788D01*
X1243327D01*
Y1101089D01*
X1240788Y1098550D01*
X1238249D01*
X1235710Y1101089D01*
X1250945Y1098550D02*
X1256023D01*
X1253484D01*
Y1113785D01*
X1250945Y1111246D01*
X654051Y1019808D02*
X648972D01*
X651512D01*
Y1007112D01*
X648972Y1004573D01*
X646433D01*
X643894Y1007112D01*
X659129Y1019808D02*
X669286D01*
Y1017268D01*
X659129Y1007112D01*
Y1004573D01*
G54D12*
X241300Y1090158D02*
Y1115550D01*
X253996D01*
X258228Y1111318D01*
Y1102854D01*
X253996Y1098622D01*
X241300D01*
X283620Y1111318D02*
X279388Y1115550D01*
X270924D01*
X266692Y1111318D01*
Y1094390D01*
X270924Y1090158D01*
X279388D01*
X283620Y1094390D01*
X292084Y1115550D02*
X300548D01*
X296316D01*
Y1090158D01*
X292084D01*
X300548D01*
X338635Y1107086D02*
X347099Y1090158D01*
X355563Y1107086D01*
X380955Y1090158D02*
X364027D01*
X380955Y1107086D01*
Y1111318D01*
X376723Y1115550D01*
X368259D01*
X364027Y1111318D01*
X389419Y1090158D02*
Y1094390D01*
X393651D01*
Y1090158D01*
X389419D01*
X410579Y1111318D02*
X414811Y1115550D01*
X423274D01*
X427506Y1111318D01*
Y1094390D01*
X423274Y1090158D01*
X414811D01*
X410579Y1094390D01*
Y1111318D01*
X241300Y1041400D02*
Y1066792D01*
X249764Y1058328D01*
X258228Y1066792D01*
Y1041400D01*
X283620Y1066792D02*
X266692D01*
Y1041400D01*
X283620D01*
X266692Y1054096D02*
X275156D01*
X292084Y1041400D02*
Y1066792D01*
X304779D01*
X309011Y1062560D01*
Y1054096D01*
X304779Y1049864D01*
X292084D01*
X342867Y1058328D02*
X351331Y1041400D01*
X359795Y1058328D01*
X380955Y1041400D02*
Y1066792D01*
X368259Y1054096D01*
X385187D01*
X393651Y1041400D02*
Y1045632D01*
X397883D01*
Y1041400D01*
X393651D01*
X414811Y1062560D02*
X419043Y1066792D01*
X427506D01*
X431739Y1062560D01*
Y1058328D01*
X427506Y1054096D01*
X423274D01*
X427506D01*
X431739Y1049864D01*
Y1045632D01*
X427506Y1041400D01*
X419043D01*
X414811Y1045632D01*
G54D13*
X919046Y489360D02*
X910582Y497824D01*
X893654D01*
X885190Y489360D01*
Y480896D01*
X893654Y472432D01*
X910582D01*
X919046Y463968D01*
Y455504D01*
X910582Y447040D01*
X893654D01*
X885190Y455504D01*
X969829Y497824D02*
X935974D01*
Y447040D01*
X969829D01*
X935974Y472432D02*
X952901D01*
X1020613Y489360D02*
X1012149Y497824D01*
X995221D01*
X986757Y489360D01*
Y455504D01*
X995221Y447040D01*
X1012149D01*
X1020613Y455504D01*
X1037541Y497824D02*
Y447040D01*
Y472432D01*
X1071396D01*
Y497824D01*
Y447040D01*
X1172964Y489360D02*
X1164500Y497824D01*
X1147572D01*
X1139108Y489360D01*
Y480896D01*
X1147572Y472432D01*
X1164500D01*
X1172964Y463968D01*
Y455504D01*
X1164500Y447040D01*
X1147572D01*
X1139108Y455504D01*
X1189892Y447040D02*
Y497824D01*
X1215283D01*
X1223747Y489360D01*
Y472432D01*
X1215283Y463968D01*
X1189892D01*
X1206819D02*
X1223747Y447040D01*
X1240675Y497824D02*
Y447040D01*
X1274531D01*
M02*
