G04*
G04 #@! TF.GenerationSoftware,Altium Limited,Altium Designer,20.0.13 (296)*
G04*
G04 Layer_Color=32896*
%FSLAX44Y44*%
%MOMM*%
G71*
G01*
G75*
%ADD10C,0.2000*%
G54D10*
X59640Y218500D02*
X58258Y220402D01*
X56022Y219676D01*
Y217324D01*
X58258Y216598D01*
X59640Y218500D01*
Y384870D02*
X58258Y386772D01*
X56022Y386046D01*
Y383694D01*
X58258Y382968D01*
X59640Y384870D01*
Y844610D02*
X58258Y846512D01*
X56022Y845786D01*
Y843434D01*
X58258Y842708D01*
X59640Y844610D01*
X1442960Y554930D02*
X1441578Y556832D01*
X1439342Y556106D01*
Y553754D01*
X1441578Y553028D01*
X1442960Y554930D01*
Y737810D02*
X1441578Y739712D01*
X1439342Y738986D01*
Y736634D01*
X1441578Y735908D01*
X1442960Y737810D01*
X1233198Y1106442D02*
X1231816Y1108344D01*
X1229580Y1107618D01*
Y1105266D01*
X1231816Y1104540D01*
X1233198Y1106442D01*
X27640Y60700D02*
X54640D01*
X27640Y218700D02*
X54640D01*
X27640Y60700D02*
Y218700D01*
X54640Y60700D02*
Y218700D01*
Y227070D02*
Y385070D01*
X27640Y227070D02*
Y385070D01*
X54640D01*
X27640Y227070D02*
X54640D01*
Y686810D02*
Y844810D01*
X27640Y686810D02*
Y844810D01*
X54640D01*
X27640Y686810D02*
X54640D01*
X1443960Y636630D02*
X1470960D01*
X1443960Y554630D02*
X1470960D01*
Y636630D01*
X1443960Y554630D02*
Y636630D01*
Y819510D02*
X1470960D01*
X1443960Y737510D02*
X1470960D01*
Y819510D01*
X1443960Y737510D02*
Y819510D01*
X1022998Y1109442D02*
Y1136442D01*
X1230998Y1109442D02*
Y1136442D01*
X1022998D02*
X1230998D01*
X1022998Y1109442D02*
X1230998D01*
M02*
