G04*
G04 #@! TF.GenerationSoftware,Altium Limited,Altium Designer,20.0.13 (296)*
G04*
G04 Layer_Color=16711935*
%FSLAX44Y44*%
%MOMM*%
G71*
G01*
G75*
%ADD11C,0.2540*%
G54D11*
X506838Y1027423D02*
Y1164844D01*
Y1027423D02*
X607505D01*
X607492D02*
X607505D01*
X607492D02*
Y1123943D01*
X181934Y1027423D02*
Y1123943D01*
Y1027423D02*
X181946D01*
X81280D02*
X181946D01*
X0Y1164844D02*
X81280D01*
Y1027423D02*
Y1164844D01*
X1460500Y657860D02*
Y718820D01*
X1358900Y657860D02*
Y718820D01*
X1460500D01*
X1358900Y657860D02*
X1460500D01*
X607593Y1164842D02*
X1498600D01*
X181946Y1164844D02*
X506838D01*
X181946Y1123943D02*
Y1164858D01*
X181934Y1123943D02*
X181946D01*
X607593Y1123895D02*
Y1164842D01*
X506838Y1123895D02*
Y1164841D01*
Y1123895D02*
X506919D01*
X1498600Y203200D02*
Y1164844D01*
X0Y654050D02*
Y1164844D01*
Y654050D02*
X107950D01*
X812800Y139700D02*
Y342900D01*
X1060450D01*
Y139700D02*
Y342900D01*
X812800Y139700D02*
X1060450D01*
X1080770Y803910D02*
Y882650D01*
X1294130D01*
Y803910D02*
Y882650D01*
X1080770Y803910D02*
X1294130D01*
X1134110Y635000D02*
Y736600D01*
X1181100D01*
Y635000D02*
Y736600D01*
X1134110Y635000D02*
X1181100D01*
X292100Y609600D02*
Y914400D01*
X152400D02*
X292100D01*
X152400Y609600D02*
Y914400D01*
Y609600D02*
X292100D01*
X1212850Y203200D02*
X1498600D01*
X1212850Y0D02*
Y203200D01*
X0Y0D02*
X1212850D01*
X107950Y425450D02*
Y654050D01*
X0Y425450D02*
X107950D01*
X0Y0D02*
Y425450D01*
M02*
