G04*
G04 #@! TF.GenerationSoftware,Altium Limited,Altium Designer,20.0.13 (296)*
G04*
G04 Layer_Color=16711935*
%FSLAX44Y44*%
%MOMM*%
G71*
G01*
G75*
%ADD31C,0.1000*%
G54D31*
X730056Y731560D02*
X732258Y732797D01*
Y735323D01*
X730056Y736560D01*
X730063Y502160D02*
X732302Y503384D01*
Y505936D01*
X730063Y507160D01*
X730056Y960960D02*
X732258Y962197D01*
Y964723D01*
X730056Y965960D01*
X641650Y711560D02*
X647650D01*
X648050D02*
X654050D01*
X641850Y756560D02*
X647850D01*
X648050D02*
X654050D01*
X717300Y491560D02*
X723400Y485560D01*
X648100D02*
X654100Y491660D01*
X648100Y982660D02*
X654200Y976660D01*
X717500Y976560D02*
X723500Y982660D01*
X648050Y982710D02*
X723550D01*
X648050Y756560D02*
Y982710D01*
Y485410D02*
Y711560D01*
Y485410D02*
X723550D01*
Y982710D01*
X654200Y976660D02*
X717550D01*
X654050D02*
X654200D01*
X654050Y756560D02*
Y976660D01*
Y491460D02*
Y711560D01*
Y491460D02*
X717550D01*
Y976660D01*
X641550Y756560D02*
Y988260D01*
Y479860D02*
Y711560D01*
Y479860D02*
X730050D01*
Y502160D01*
Y507160D02*
Y960960D01*
Y965960D02*
Y988260D01*
X641550D02*
X730050D01*
M02*
